<?xml version="1.0" encoding="utf-8"?>
<svg viewBox="136.229 42.253 161.643 43.428" xmlns="http://www.w3.org/2000/svg">
  <g transform="matrix(0.020423, 0, 0, -0.020423, 86.090179, 150.849243)" fill="#000000" stroke="none" style="">
    <path d="M7768 5305 c-88 -17 -184 -51 -271 -97 -82 -44 -213 -174 -255 -254 -110 -212 -74 -443 97 -607 113 -108 247 -174 451 -222 299 -70 358 -87 429 -120 43 -20 91 -53 113 -76 34 -36 38 -45 38 -94 0 -45 -5 -60 -32 -96 -66 -85 -188 -143 -330 -155 -99 -9 -136 -45 -91 -90 14 -14 30 -16 98 -11 193 14 374 116 435 245 31 64 32 152 3 207 -64 121 -217 197 -534 264 -345 73 -512 168 -595 336 -109 221 0 474 260 600 124 60 204 78 356 79 101 1 141 -4 209 -22 95 -26 290 -122 366 -180 43 -32 50 -43 53 -77 4 -46 -11 -79 -45 -94 -41 -19 -66 -13 -143 36 -101 62 -222 119 -295 138 -76 19 -214 19 -290 0 -297 -77 -419 -315 -242 -471 78 -69 258 -141 396 -160 45 -6 50 -4 66 20 15 23 16 28 3 49 -12 17 -38 27 -114 45 -197 47 -319 118 -331 194 -12 76 65 158 196 210 47 19 75 22 171 22 150 0 195 -17 424 -158 49 -30 69 -36 113 -36 82 0 141 35 176 105 55 110 14 205 -127 294 -103 64 -240 129 -333 157 -111 33 -306 41 -425 19z" style="fill: rgb(7, 145, 134);"/>
    <path d="M5482 5259 c-83 -16 -144 -75 -163 -156 -11 -50 -11 -1706 0 -1756 14 -57 57 -113 107 -137 42 -21 54 -21 331 -17 324 5 370 12 530 87 230 107 440 325 524 544 63 163 73 216 73 401 1 157 -1 178 -27 270 -35 126 -48 147 -89 143 -51 -5 -55 -26 -25 -120 38 -118 50 -215 44 -343 -20 -395 -287 -734 -672 -851 -87 -27 -99 -28 -362 -32 l-273 -4 -30 30 -30 30 0 877 0 877 30 30 30 30 273 -4 c263 -4 275 -5 362 -32 115 -35 240 -101 334 -177 41 -32 83 -59 92 -59 27 0 53 44 40 68 -28 52 -172 155 -297 213 -108 50 -221 78 -358 90 -134 11 -385 10 -444 -2z" style="fill: rgb(7, 145, 134);"/>
    <path d="M9169 5261 c-54 -11 -100 -42 -134 -90 l-30 -43 -3 -415 c-2 -303 0 -419 9 -429 17 -21 66 -18 79 5 6 13 10 159 10 406 0 402 1 413 44 447 19 16 52 18 328 18 184 0 328 -4 360 -11 72 -15 188 -73 243 -121 78 -69 139 -167 177 -283 21 -68 16 -218 -12 -309 -27 -89 -22 -109 28 -114 38 -4 54 22 83 135 37 145 19 294 -52 441 -78 162 -252 303 -430 348 -50 12 -130 17 -364 19 -165 2 -316 0 -336 -4z" style="fill: rgb(7, 145, 134);"/>
    <path d="M3813 5012 c-6 -4 -120 -220 -253 -480 -218 -424 -244 -472 -266 -472 -21 0 -36 25 -135 221 l-110 221 22 24 c15 17 22 37 23 68 2 114 -149 155 -207 57 -22 -38 -21 -69 3 -109 l20 -32 -113 -170 -112 -169 -115 -3 c-107 -3 -115 -4 -115 -23 0 -19 8 -20 132 -23 l132 -3 121 181 c79 119 126 180 138 180 13 0 47 -60 128 -222 l111 -223 -18 -30 c-30 -48 -25 -91 15 -131 29 -29 41 -34 79 -34 54 0 91 26 107 75 10 30 9 41 -9 79 l-21 43 226 441 c124 243 229 442 232 442 4 0 30 -37 57 -83 36 -58 57 -83 73 -85 16 -3 22 2 22 17 0 22 -129 243 -145 248 -6 1 -15 -1 -22 -5z m-791 -379 c22 -20 23 -51 1 -75 -31 -35 -93 -10 -93 38 0 48 55 70 92 37z m312 -649 c42 -41 -11 -107 -65 -81 -27 14 -38 60 -18 83 15 19 64 18 83 -2z" style="fill: rgb(7, 145, 134);"/>
    <path d="M5647 4935 c-15 -14 -17 -46 -17 -270 l0 -255 25 -16 c23 -15 27 -15 50 0 l25 16 0 222 0 221 123 -6 c80 -4 144 -13 187 -26 189 -59 344 -214 407 -405 37 -116 37 -265 -1 -383 -49 -150 -150 -275 -284 -350 -99 -55 -171 -74 -309 -80 l-123 -6 0 271 0 272 -25 16 c-23 15 -27 15 -50 0 l-25 -16 0 -309 c0 -261 2 -310 15 -321 11 -9 58 -11 182 -8 190 6 263 23 390 93 81 45 212 174 261 257 132 224 131 528 -3 749 -87 143 -232 257 -400 315 -71 25 -98 28 -246 32 -145 4 -167 2 -182 -13z" style="fill: rgb(7, 145, 134);"/>
    <path d="M9327 4932 c-15 -16 -17 -54 -17 -325 0 -264 2 -308 16 -321 13 -14 49 -16 234 -16 255 0 293 9 380 87 141 127 153 334 27 479 -64 73 -199 128 -271 110 -57 -14 -36 -96 24 -96 47 0 121 -32 157 -68 119 -119 88 -319 -61 -388 -48 -22 -63 -24 -228 -24 l-178 0 0 240 0 240 60 0 c52 0 61 3 76 25 15 23 15 27 0 50 -16 24 -21 25 -110 25 -77 0 -96 -3 -109 -18z" style="fill: rgb(7, 145, 134);"/>
    <path d="M4030 4640 c-67 -15 -143 -55 -163 -89 -13 -22 -17 -51 -17 -118 l0 -88 -77 -13 c-94 -15 -159 -45 -184 -86 -17 -29 -19 -54 -19 -326 0 -334 -2 -323 79 -364 120 -61 342 -61 462 0 71 35 79 52 79 165 l0 96 61 7 c85 10 163 41 194 77 l25 31 0 305 0 305 -33 33 c-20 20 -55 40 -88 50 -63 20 -252 29 -319 15z m322 -77 c23 -11 49 -27 57 -37 12 -14 11 -19 -4 -36 -34 -37 -111 -55 -240 -55 -130 0 -190 13 -230 48 -35 30 -25 50 38 77 94 41 290 42 379 3z m-310 -179 c92 -20 221 -13 306 15 34 12 64 21 67 21 3 0 5 -45 5 -99 0 -95 -1 -100 -26 -120 -31 -24 -79 -40 -151 -48 l-53 -6 0 41 c0 78 -80 132 -219 148 l-61 7 0 43 0 42 29 -14 c16 -8 63 -22 103 -30z m-21 -115 c61 -13 109 -44 109 -69 0 -26 -56 -54 -138 -70 -120 -24 -305 3 -347 50 -24 27 -14 44 39 70 76 36 218 44 337 19z m399 -219 c0 -82 -2 -93 -24 -115 -27 -27 -112 -55 -168 -55 l-38 0 0 105 0 104 58 7 c31 3 77 14 102 24 72 29 70 30 70 -70z m-629 19 c105 -16 224 -3 322 36 16 7 17 -2 17 -99 0 -99 -1 -107 -23 -120 -47 -32 -146 -48 -251 -43 -112 5 -161 17 -200 48 -25 20 -26 24 -26 124 l0 104 43 -19 c24 -11 77 -24 118 -31z m-29 -275 c110 -24 249 -11 351 31 16 7 18 0 15 -96 l-3 -104 -49 -24 c-101 -50 -363 -37 -425 20 -19 18 -21 31 -21 119 l0 98 29 -14 c16 -8 63 -22 103 -30z" style="fill: rgb(7, 145, 134);"/>
    <path d="M8129 4409 c-22 -41 1 -63 103 -98 366 -127 519 -390 387 -667 -120 -253 -488 -403 -829 -338 -153 29 -290 88 -447 193 -107 72 -132 109 -113 167 9 26 22 40 48 51 47 19 67 13 158 -53 91 -65 229 -134 282 -141 45 -6 65 12 60 53 -3 23 -15 31 -93 65 -49 21 -136 70 -192 108 -75 51 -116 72 -149 77 -171 25 -286 -170 -181 -308 64 -84 313 -229 482 -281 124 -39 220 -50 357 -44 152 6 249 31 385 97 81 40 118 65 187 131 73 69 93 95 131 173 167 337 -11 667 -439 812 -88 30 -122 31 -137 3z" style="fill: rgb(7, 145, 134);"/>
    <path d="M10064 4179 c-22 -17 -64 -44 -94 -59 -109 -55 -147 -61 -400 -67 -199 -4 -237 -8 -247 -21 -10 -12 -13 -98 -13 -350 l0 -334 -29 -29 c-51 -50 -137 -36 -170 28 -7 15 -11 143 -11 407 0 416 0 416 -54 416 -46 0 -46 -1 -46 -425 0 -396 0 -401 23 -445 12 -24 39 -58 60 -74 36 -29 44 -31 120 -31 92 0 123 15 175 82 l27 36 3 317 3 317 207 6 c184 4 215 8 284 30 132 42 268 132 268 177 0 20 -31 50 -52 50 -8 0 -33 -14 -54 -31z" style="fill: rgb(7, 145, 134);"/>
  </g>
</svg>